<svg id="Layer_1" data-name="Layer 1" xmlns="http://www.w3.org/2000/svg" viewBox="0 0 50.21 50.21"><defs><style>.cls-1{fill:#fff;}</style></defs><title>icon-sleet</title><path class="cls-1" d="M36.59,7.74A14.92,14.92,0,0,0,9.38,14.56,8.46,8.46,0,0,0,12.18,31H35.62a11.72,11.72,0,0,0,1-23.27ZM35.41,27H12.18a4.44,4.44,0,0,1-.6-8.84l1.76-.24V16.09a10.89,10.89,0,0,1,20.33-5.45l.54.93,1.08.07A7.7,7.7,0,0,1,35.41,27Z"/><path class="cls-1" d="M28.69,37.29a.35.35,0,0,0-.35-.34H27.9l.41-.41a.34.34,0,1,0-.48-.48l-.9.89H25.82l.55-1,1.23-.33a.35.35,0,0,0-.18-.67l-.56.15.22-.38a.34.34,0,0,0-.6-.34l-.22.38-.15-.56a.34.34,0,0,0-.42-.24.34.34,0,0,0-.24.42l.33,1.22-.56,1-.56-1L25,34.42a.34.34,0,0,0-.24-.42.35.35,0,0,0-.43.24l-.15.56L24,34.42a.35.35,0,0,0-.47-.13.34.34,0,0,0-.13.47l.22.38L23,35a.35.35,0,0,0-.18.67l1.22.33.56,1H23.51l-.9-.89a.34.34,0,1,0-.48.48l.4.41H22.1a.35.35,0,1,0,0,.69h.43l-.4.41a.34.34,0,0,0,0,.49.34.34,0,0,0,.48,0l.9-.9h1.11l-.56,1-1.22.33a.34.34,0,0,0-.24.42.34.34,0,0,0,.33.26H23l.56-.15-.22.38a.34.34,0,0,0,.13.47.33.33,0,0,0,.17,0,.35.35,0,0,0,.3-.17l.21-.38.15.56a.36.36,0,0,0,.34.26l.09,0a.34.34,0,0,0,.24-.42L24.66,39l.56-1,.56,1-.33,1.22a.34.34,0,0,0,.24.42l.09,0a.35.35,0,0,0,.33-.26l.15-.56.22.38a.35.35,0,0,0,.3.17.33.33,0,0,0,.17,0,.35.35,0,0,0,.13-.47l-.22-.38.56.15h.09a.34.34,0,0,0,.33-.26.34.34,0,0,0-.24-.42l-1.23-.33-.55-1h1.11l.9.9a.34.34,0,0,0,.48,0,.34.34,0,0,0,0-.49l-.41-.41h.44A.35.35,0,0,0,28.69,37.29Z"/><path class="cls-1" d="M33.38,45.22a.34.34,0,0,0-.34-.34H32.6l.41-.41a.35.35,0,1,0-.49-.49l-.89.9H30.51l.56-1,1.22-.33a.33.33,0,0,0,.25-.42.34.34,0,0,0-.42-.24l-.56.15.22-.38a.35.35,0,0,0-.13-.47.33.33,0,0,0-.47.13l-.22.37-.15-.55a.34.34,0,1,0-.66.17l.32,1.23-.55,1-.56-1,.33-1.23a.35.35,0,1,0-.67-.17l-.15.55-.22-.37a.33.33,0,0,0-.47-.13.34.34,0,0,0-.12.47l.22.38-.56-.15a.34.34,0,0,0-.42.24.34.34,0,0,0,.24.42l1.22.33.56,1H28.21l-.9-.9a.35.35,0,1,0-.49.49l.41.41h-.44a.34.34,0,0,0-.34.34.35.35,0,0,0,.34.35h.44l-.41.4a.36.36,0,0,0,0,.49.35.35,0,0,0,.25.1.33.33,0,0,0,.24-.1l.9-.89h1.11l-.56,1-1.22.33a.34.34,0,0,0-.24.42.35.35,0,0,0,.33.26l.09,0,.56-.15-.22.38a.34.34,0,0,0,.12.47.41.41,0,0,0,.17.05.33.33,0,0,0,.3-.17l.22-.38.15.56a.34.34,0,0,0,.33.25h.09a.34.34,0,0,0,.25-.42l-.33-1.22.56-1,.55,1-.32,1.22a.34.34,0,0,0,.24.42h.09a.34.34,0,0,0,.33-.25l.15-.56.22.38a.34.34,0,0,0,.47.12.35.35,0,0,0,.13-.47l-.22-.38.56.15.09,0a.35.35,0,0,0,.33-.26.34.34,0,0,0-.25-.42l-1.22-.33-.56-1h1.12l.89.89a.35.35,0,0,0,.25.1.33.33,0,0,0,.24-.1A.36.36,0,0,0,33,46l-.41-.4H33A.35.35,0,0,0,33.38,45.22Z"/><path class="cls-1" d="M38.07,37.29a.35.35,0,0,0-.35-.34h-.44l.41-.41a.34.34,0,1,0-.48-.48l-.9.89H35.2l.55-1L37,35.66A.35.35,0,0,0,36.8,35l-.56.15.22-.38a.34.34,0,0,0-.6-.34l-.22.38-.15-.56a.34.34,0,0,0-.42-.24.34.34,0,0,0-.24.42l.33,1.22-.56,1-.56-1,.33-1.22a.34.34,0,0,0-.24-.42.35.35,0,0,0-.43.24l-.15.56-.21-.38a.34.34,0,0,0-.6.34l.22.38L32.4,35a.35.35,0,0,0-.18.67l1.23.33L34,37H32.89l-.9-.89a.34.34,0,1,0-.48.48l.4.41h-.43a.35.35,0,1,0,0,.69h.43l-.4.41a.34.34,0,0,0,0,.49.34.34,0,0,0,.48,0l.9-.9H34l-.55,1-1.23.33a.34.34,0,0,0-.24.42.34.34,0,0,0,.33.26h.09l.56-.15-.22.38a.35.35,0,0,0,.12.47.39.39,0,0,0,.18,0,.35.35,0,0,0,.3-.17l.21-.38.15.56a.37.37,0,0,0,.34.26l.09,0a.34.34,0,0,0,.24-.42L34,39l.56-1,.56,1-.33,1.22a.34.34,0,0,0,.24.42l.09,0a.35.35,0,0,0,.33-.26l.15-.56.22.38a.35.35,0,0,0,.3.17.33.33,0,0,0,.17,0,.35.35,0,0,0,.13-.47l-.22-.38.56.15h.09a.34.34,0,0,0,.33-.26.34.34,0,0,0-.24-.42l-1.23-.33-.55-1h1.11l.9.9a.34.34,0,0,0,.48,0,.34.34,0,0,0,0-.49l-.41-.41h.44A.35.35,0,0,0,38.07,37.29Z"/><path class="cls-1" d="M15.17,41h0a2.22,2.22,0,0,0,2.22-2.22,2.16,2.16,0,0,0-.14-.81h0v0a11.3,11.3,0,0,0-1.85-3.38.39.39,0,0,0-.19-.1h0a.42.42,0,0,0-.2.1A11.44,11.44,0,0,0,13.13,38h0a2.16,2.16,0,0,0-.15.81A2.23,2.23,0,0,0,15.17,41Z"/><path class="cls-1" d="M10.7,49h0A2.24,2.24,0,0,0,13,46.82,2.16,2.16,0,0,0,12.8,46h0A11.52,11.52,0,0,0,11,42.61a.32.32,0,0,0-.2-.1h0a.32.32,0,0,0-.19.1A11.31,11.31,0,0,0,8.66,46h0a2.38,2.38,0,0,0-.16.81A2.24,2.24,0,0,0,10.7,49Z"/><path class="cls-1" d="M19.64,49h0a2.24,2.24,0,0,0,2.23-2.22,2.16,2.16,0,0,0-.15-.81h0a11.28,11.28,0,0,0-1.84-3.38.34.34,0,0,0-.2-.1h0a.34.34,0,0,0-.2.1A11.31,11.31,0,0,0,17.6,46h0a2.17,2.17,0,0,0-.16.81A2.24,2.24,0,0,0,19.64,49Z"/></svg>