<svg id="Layer_1" data-name="Layer 1" xmlns="http://www.w3.org/2000/svg" viewBox="0 0 50.21 50.21"><defs><style>.cls-1{fill:#fff;}</style></defs><title>icon-lightrain</title><path class="cls-1" d="M25.08,40.2h0a2.23,2.23,0,0,0,2.07-3h0a11.52,11.52,0,0,0-1.85-3.38.42.42,0,0,0-.19-.11h0a.35.35,0,0,0-.19.11A11.31,11.31,0,0,0,23,37.14h0a2.24,2.24,0,0,0,2,3.05Z"/><path class="cls-1" d="M16.13,40.2h0a2.25,2.25,0,0,0,2.08-3h0a11.5,11.5,0,0,0-1.84-3.38.45.45,0,0,0-.2-.11h0a.37.37,0,0,0-.2.11,11.31,11.31,0,0,0-1.87,3.36h0a2.42,2.42,0,0,0-.15.81A2.22,2.22,0,0,0,16.13,40.2Z"/><path class="cls-1" d="M34,40.2h0a2.23,2.23,0,0,0,2.08-3h0a11.28,11.28,0,0,0-1.84-3.38.45.45,0,0,0-.2-.11h0a.37.37,0,0,0-.2.11A11.31,11.31,0,0,0,32,37.14h0a2.22,2.22,0,0,0,2,3.05Z"/><path class="cls-1" d="M20.6,49.21h0A2.23,2.23,0,0,0,22.86,47a2.2,2.2,0,0,0-.15-.81h0a11.28,11.28,0,0,0-1.84-3.38.37.37,0,0,0-.2-.11h0a.42.42,0,0,0-.2.1,11.26,11.26,0,0,0-1.86,3.37h0a2.17,2.17,0,0,0-.16.81A2.23,2.23,0,0,0,20.6,49.21Z"/><path class="cls-1" d="M29.55,49.21h0A2.22,2.22,0,0,0,31.8,47a2.19,2.19,0,0,0-.14-.81h0a11.5,11.5,0,0,0-1.84-3.38.4.4,0,0,0-.2-.11h0a.38.38,0,0,0-.2.1,11.5,11.5,0,0,0-1.87,3.37h0a2.38,2.38,0,0,0-.15.81A2.22,2.22,0,0,0,29.55,49.21Z"/><path class="cls-1" d="M36.59,7.56A14.93,14.93,0,0,0,9.38,14.38a8.47,8.47,0,0,0,2.8,16.46H35.62a11.72,11.72,0,0,0,1-23.27ZM35.41,26.82H12.18a4.45,4.45,0,0,1-.6-8.85l1.76-.23V15.92a10.9,10.9,0,0,1,20.33-5.46l.54.93,1.08.07a7.7,7.7,0,0,1,.13,15.36Z"/></svg>