<svg id="Layer_1" data-name="Layer 1" xmlns="http://www.w3.org/2000/svg" viewBox="0 0 50.21 50.21"><defs><style>.cls-1{fill:#fff;}</style></defs><title>icon-snow</title><path class="cls-1" d="M41.44,25.1a1.63,1.63,0,0,0-1.62-1.62H37.76l1.92-1.92a1.62,1.62,0,0,0-2.29-2.3l-4.23,4.22H27.91l2.63-4.55,5.76-1.54a1.63,1.63,0,1,0-.84-3.14L32.84,15l1-1.79a1.62,1.62,0,0,0-2.81-1.62l-1,1.78-.7-2.62a1.62,1.62,0,0,0-3.14.83l1.55,5.77L25.1,21.86l-2.62-4.55L24,11.54a1.62,1.62,0,0,0-3.13-.84l-.71,2.63-1-1.78a1.62,1.62,0,0,0-2.81,1.62l1,1.79-2.63-.71a1.63,1.63,0,0,0-.84,3.14l5.77,1.54,2.62,4.55H17l-4.22-4.22a1.63,1.63,0,0,0-2.3,2.3l1.93,1.92H10.39a1.63,1.63,0,0,0,0,3.25h2.06l-1.92,1.92A1.62,1.62,0,0,0,12.82,31L17,26.73h5.25l-2.62,4.54L13.9,32.82A1.62,1.62,0,0,0,14.32,36a2,2,0,0,0,.42,0l2.63-.71-1,1.79a1.62,1.62,0,0,0,2.81,1.62l1-1.79.71,2.63a1.62,1.62,0,0,0,1.56,1.21,1.59,1.59,0,0,0,.43-.06,1.62,1.62,0,0,0,1.14-2L22.48,32.9l2.62-4.55,2.63,4.55-1.55,5.76a1.62,1.62,0,0,0,1.15,2,1.52,1.52,0,0,0,.42.06,1.63,1.63,0,0,0,1.57-1.21l.7-2.63,1,1.79a1.64,1.64,0,0,0,1.41.81,1.59,1.59,0,0,0,.81-.22A1.62,1.62,0,0,0,33.86,37l-1-1.78,2.62.7a1.54,1.54,0,0,0,.43.06,1.62,1.62,0,0,0,.41-3.19l-5.76-1.55-2.62-4.54h5.25L37.39,31a1.62,1.62,0,0,0,1.14.47A1.64,1.64,0,0,0,39.68,31a1.62,1.62,0,0,0,0-2.3l-1.92-1.92h2.06A1.63,1.63,0,0,0,41.44,25.1Z"/></svg>