<svg id="Layer_1" data-name="Layer 1" xmlns="http://www.w3.org/2000/svg" viewBox="0 0 50.21 50.21"><defs><style>.cls-1{fill:#fff;}</style></defs><title>icon-rain</title><path class="cls-1" d="M25.94,7.78,25.56,6.5c-.09-.29-.27-.47-.46-.47s-.36.18-.45.47l-.39,1.28A19.47,19.47,0,0,0,5.71,25.37a.3.3,0,0,0,.18.32.31.31,0,0,0,.37-.08c1.07-1.21,3.28-2,5.84-2,2.9,0,5.36,1.07,6.21,2.54a.3.3,0,0,0,.27.16.32.32,0,0,0,.28-.16c.85-1.47,3.3-2.54,6.2-2.54s5.43,1.1,6.25,2.6a.29.29,0,0,0,.27.17.3.3,0,0,0,.28-.17c.82-1.5,3.3-2.6,6.24-2.6,2.57,0,4.78.83,5.85,2a.3.3,0,0,0,.36.08.31.31,0,0,0,.19-.32A19.48,19.48,0,0,0,25.94,7.78Z"/><path class="cls-1" d="M30.64,38.62A1.39,1.39,0,0,0,29.26,40a1.39,1.39,0,1,1-2.77,0V25.86a1.39,1.39,0,1,0-2.78,0V40A4.16,4.16,0,1,0,32,40,1.39,1.39,0,0,0,30.64,38.62Z"/></svg>