<svg id="Layer_1" data-name="Layer 1" xmlns="http://www.w3.org/2000/svg" viewBox="0 0 50.21 50.21"><defs><style>.cls-1{fill:#fff;}</style></defs><title>icon-sun</title><path class="cls-1" d="M25.1,14.21a10.88,10.88,0,1,0,10.07,6.72A10.84,10.84,0,0,0,25.1,14.21Zm6.38,13.54a6.91,6.91,0,1,1,0-5.29A6.87,6.87,0,0,1,31.48,27.75Z"/><path class="cls-1" d="M17.84,12a1.68,1.68,0,0,0,1.55,1,1.64,1.64,0,0,0,.65-.13,1.68,1.68,0,0,0,.9-2.2L19.33,6.76a1.68,1.68,0,0,0-3.11,1.29Z"/><path class="cls-1" d="M32.37,38.25a1.68,1.68,0,0,0-3.11,1.28l1.62,3.91A1.68,1.68,0,0,0,34,42.16Z"/><path class="cls-1" d="M10.67,29.26,6.76,30.88a1.68,1.68,0,0,0,.65,3.23A1.81,1.81,0,0,0,8.05,34L12,32.37a1.68,1.68,0,0,0-1.29-3.11Z"/><path class="cls-1" d="M38.89,21.07a1.81,1.81,0,0,0,.64-.12l3.91-1.62a1.68,1.68,0,0,0-1.28-3.11l-3.91,1.62a1.68,1.68,0,0,0,.64,3.23Z"/><path class="cls-1" d="M12,17.84,8.05,16.22a1.68,1.68,0,0,0-1.29,3.11L10.67,21a1.82,1.82,0,0,0,.65.12A1.68,1.68,0,0,0,12,17.84Z"/><path class="cls-1" d="M43.44,30.88l-3.91-1.62a1.68,1.68,0,0,0-1.28,3.11L42.16,34a1.73,1.73,0,0,0,.64.12,1.68,1.68,0,0,0,.64-3.23Z"/><path class="cls-1" d="M20,37.34a1.68,1.68,0,0,0-2.2.91l-1.62,3.91a1.68,1.68,0,0,0,.91,2.19,1.63,1.63,0,0,0,.64.13,1.69,1.69,0,0,0,1.56-1L21,39.53A1.69,1.69,0,0,0,20,37.34Z"/><path class="cls-1" d="M30.17,12.87a1.63,1.63,0,0,0,.64.13,1.69,1.69,0,0,0,1.56-1L34,8.05a1.68,1.68,0,0,0-3.11-1.29l-1.62,3.91A1.69,1.69,0,0,0,30.17,12.87Z"/></svg>