<svg id="Layer_1" data-name="Layer 1" xmlns="http://www.w3.org/2000/svg" viewBox="0 0 50.21 50.21"><defs><style>.cls-1{fill:#fff;}</style></defs><title>icon-lightsnow</title><path class="cls-1" d="M36.59,11.39A14.93,14.93,0,0,0,9.38,18.21a8.47,8.47,0,0,0,2.79,16.46H35.62a11.72,11.72,0,0,0,1-23.27ZM35.41,30.65H12.17a4.45,4.45,0,0,1-.59-8.85l1.75-.23V19.75a10.91,10.91,0,0,1,20.35-5.46l.53.93,1.08.07a7.7,7.7,0,0,1,.13,15.36Z"/><path class="cls-1" d="M29.73,41a.47.47,0,0,0-.46-.46h-.59l.55-.54a.46.46,0,0,0-.65-.65l-1.2,1.19H25.9l.74-1.28,1.63-.44a.46.46,0,0,0-.23-.89l-.75.2.29-.5a.47.47,0,0,0-.16-.63.46.46,0,0,0-.63.17l-.29.5-.2-.74a.47.47,0,0,0-.57-.33.46.46,0,0,0-.32.57l.44,1.63L25.1,40l-.74-1.28.44-1.63a.47.47,0,0,0-.33-.57.46.46,0,0,0-.56.33l-.2.74-.29-.5a.46.46,0,0,0-.63-.17.47.47,0,0,0-.17.63l.3.5-.75-.2a.46.46,0,0,0-.24.89l1.63.44.75,1.28H22.82l-1.19-1.19A.46.46,0,0,0,21,40l.54.54h-.58a.47.47,0,0,0-.46.46.46.46,0,0,0,.46.46h.58L21,42a.46.46,0,0,0,0,.65.45.45,0,0,0,.32.13.46.46,0,0,0,.33-.13l1.19-1.2h1.49l-.75,1.29-1.63.44a.45.45,0,0,0-.32.56.46.46,0,0,0,.44.34.25.25,0,0,0,.12,0l.75-.19-.3.5a.47.47,0,0,0,.17.63.47.47,0,0,0,.63-.17l.29-.51.2.75a.46.46,0,0,0,.44.34l.12,0a.46.46,0,0,0,.33-.56l-.44-1.63.74-1.29.75,1.29-.44,1.63a.45.45,0,0,0,.32.56l.12,0A.47.47,0,0,0,26.3,45l.2-.75.29.51a.45.45,0,0,0,.39.23.53.53,0,0,0,.24-.06.47.47,0,0,0,.16-.63l-.29-.51L28,44l.11,0a.47.47,0,0,0,.45-.34.46.46,0,0,0-.33-.56l-1.63-.44-.74-1.29h1.48l1.2,1.2a.45.45,0,0,0,.32.13.46.46,0,0,0,.33-.78l-.55-.55h.59A.46.46,0,0,0,29.73,41Z"/><path class="cls-1" d="M17.22,41a.47.47,0,0,0-.46-.46h-.59l.55-.54a.46.46,0,0,0-.65-.65L14.88,40.5H13.39l.74-1.28,1.63-.44a.46.46,0,0,0-.23-.89l-.75.2.29-.5a.47.47,0,0,0-.16-.63.46.46,0,0,0-.63.17l-.29.5-.2-.74a.47.47,0,0,0-.57-.33.46.46,0,0,0-.32.57l.44,1.63L12.59,40l-.74-1.28.44-1.63a.47.47,0,0,0-.33-.57.46.46,0,0,0-.56.33l-.2.74-.29-.5a.46.46,0,0,0-.63-.17.47.47,0,0,0-.17.63l.29.5-.74-.2a.46.46,0,1,0-.23.89l1.63.44.74,1.28H10.31L9.12,39.31a.46.46,0,0,0-.65.65L9,40.5H8.43A.47.47,0,0,0,8,41a.46.46,0,0,0,.46.46H9L8.47,42a.46.46,0,0,0,0,.65.45.45,0,0,0,.32.13.46.46,0,0,0,.33-.13l1.19-1.2H11.8l-.74,1.29-1.63.44a.45.45,0,0,0-.33.56.46.46,0,0,0,.44.34.25.25,0,0,0,.12,0l.74-.19-.29.5a.47.47,0,0,0,.17.63.46.46,0,0,0,.23.06.45.45,0,0,0,.4-.23l.29-.51.2.75a.47.47,0,0,0,.44.34l.12,0a.46.46,0,0,0,.33-.56l-.44-1.63.74-1.29.75,1.29L12.9,44.8a.45.45,0,0,0,.32.56l.12,0a.47.47,0,0,0,.45-.34l.2-.75.29.51a.45.45,0,0,0,.4.23.53.53,0,0,0,.23-.06.47.47,0,0,0,.16-.63l-.29-.51.75.2.12,0a.47.47,0,0,0,.44-.34.46.46,0,0,0-.33-.56l-1.63-.44-.74-1.29h1.49l1.19,1.2a.45.45,0,0,0,.32.13.46.46,0,0,0,.33-.78l-.55-.55h.59A.46.46,0,0,0,17.22,41Z"/><path class="cls-1" d="M42.24,41a.47.47,0,0,0-.46-.46h-.59l.55-.54a.46.46,0,0,0-.65-.65l-1.2,1.19H38.41l.74-1.28,1.63-.44a.46.46,0,0,0-.23-.89l-.75.2.29-.5a.46.46,0,0,0-.17-.63.45.45,0,0,0-.62.17l-.29.5-.21-.74a.46.46,0,0,0-.56-.33.46.46,0,0,0-.32.57l.44,1.63L37.61,40l-.74-1.28.44-1.63a.47.47,0,0,0-.33-.57.46.46,0,0,0-.56.33l-.2.74-.29-.5A.46.46,0,0,0,35.3,37a.47.47,0,0,0-.17.63l.29.5-.74-.2a.46.46,0,0,0-.24.89l1.63.44.74,1.28H35.33l-1.19-1.19a.46.46,0,0,0-.65.65l.54.54h-.58A.47.47,0,0,0,33,41a.46.46,0,0,0,.46.46H34l-.54.55a.46.46,0,0,0,0,.65.45.45,0,0,0,.32.13.46.46,0,0,0,.33-.13l1.19-1.2h1.48l-.74,1.29-1.63.44a.45.45,0,0,0-.32.56.46.46,0,0,0,.44.34.25.25,0,0,0,.12,0l.74-.19-.29.5a.47.47,0,0,0,.17.63.47.47,0,0,0,.63-.17l.29-.51.2.75a.46.46,0,0,0,.44.34l.12,0a.46.46,0,0,0,.33-.56l-.44-1.63.74-1.29.75,1.29-.44,1.63a.45.45,0,0,0,.32.56l.12,0A.45.45,0,0,0,38.8,45l.21-.75.29.51a.45.45,0,0,0,.4.23.46.46,0,0,0,.22-.06.46.46,0,0,0,.17-.63l-.29-.51.74.2.12,0a.47.47,0,0,0,.45-.34.46.46,0,0,0-.33-.56l-1.63-.44-.74-1.29h1.48l1.2,1.2a.45.45,0,0,0,.32.13.46.46,0,0,0,.33-.78l-.55-.55h.59A.46.46,0,0,0,42.24,41Z"/></svg>