<?xml version="1.0" encoding="utf-8"?>
<!-- Generator: Adobe Illustrator 20.1.0, SVG Export Plug-In . SVG Version: 6.00 Build 0)  -->
<!DOCTYPE svg PUBLIC "-//W3C//DTD SVG 1.1//EN" "http://www.w3.org/Graphics/SVG/1.1/DTD/svg11.dtd">
<svg version="1.1" id="レイヤー_1" xmlns="http://www.w3.org/2000/svg" xmlns:xlink="http://www.w3.org/1999/xlink" x="0px"
	 y="0px" viewBox="0 0 234.2 34.8" style="enable-background:new 0 0 234.2 34.8;" xml:space="preserve">
<style type="text/css">
	.st0{fill:#FFFFFF;}
	.st1{fill:#474747;}
</style>
<g>
	<g>
		<path class="st0" d="M28.1,31.2c-1.2,2.1-4.7,3.1-10.4,3.1h-16c-1.1,0-1.6-0.6-1.6-1.7c0-0.7,0-1.2,0.2-1.5
			c0.2-0.4,0.7-0.6,1.4-0.6h16c4.3,0,6.5-0.8,6.5-2.4v-2.2c0-1.6-2.1-2.4-6.3-2.5c-7.1-0.2-11-0.4-11.6-0.5C2.1,22.2,0,20.4,0,17.3
			v-1.9c0-3,1.7-5,4.9-5.9C6.4,9.2,9.3,9,13.5,9c1.1,0,1.7,0.6,1.7,1.6v0.5c0,1.1-0.6,1.7-1.7,1.7c-0.1,0-0.4,0-0.9,0
			c-0.4,0-0.8,0-1.1,0c-4.5,0-6.8,0.9-6.8,2.7v1.7c0,1.1,0.9,1.8,2.8,2.2c0.8,0.1,2.1,0.2,4.1,0.2h6.2c2.8,0,5.1,0.4,7,1.1
			c2.7,1.1,4,2.8,4,5.1V28C28.7,29.4,28.5,30.4,28.1,31.2z"/>
		<path class="st0" d="M56.9,34.3c-1,0-1.7,0-1.9-0.1c-0.6-0.2-0.9-0.7-0.9-1.5V20c0-0.9-0.7-1.5-2.3-1.8c-0.5-0.1-1.6-0.1-3.3-0.1
			h-7.1c-1.7,0-2.8,0-3.4,0.1c-1.5,0.3-2.3,0.9-2.3,1.8v12.6c0,1.1-0.6,1.7-1.7,1.7c-1,0-1.6,0-1.9-0.1c-0.6-0.2-0.9-0.7-0.9-1.5
			V20.1c0-3.8,3.4-5.7,10.1-5.7h7.1c6.6,0,9.9,1.9,9.9,5.6v12.6C58.5,33.8,58,34.3,56.9,34.3z"/>
		<path class="st0" d="M85,33.1c-1.7,0.8-3.8,1.2-6.3,1.2h-7.3c-2.5,0-4.7-0.4-6.5-1.2c-2.4-1.1-3.7-2.7-3.7-5v-7.3
			c0-2.2,1.2-3.9,3.7-5.1c1.9-0.9,4-1.3,6.5-1.3h7.3c6.5,0,9.7,2.1,9.7,6.3v7.4C88.4,30.4,87.3,32.1,85,33.1z M84,20.5
			c0-1.6-1.8-2.3-5.4-2.3h-7.1c-1.3,0-2.5,0.1-3.6,0.5c-1.5,0.5-2.2,1.2-2.2,2.2v7.3c0,1,0.8,1.7,2.3,2.1c1,0.3,2.2,0.4,3.5,0.4h7.1
			c1.2,0,2.3-0.1,3.3-0.5c1.4-0.5,2.1-1.1,2.1-2V20.5z"/>
		<path class="st0" d="M120.9,32.5c-0.5,0.9-1.4,1.4-2.6,1.4c-1.3,0-2.1-0.5-2.6-1.4l-6.5-12.1l-6.6,12.2c-0.5,0.9-1.4,1.4-2.7,1.4
			c-1.3,0-2.2-0.5-2.7-1.4l-8-15.8c-0.2-0.4-0.3-0.7-0.3-1c0-0.9,0.7-1.4,2-1.4c1.2,0,2,0.3,2.3,1l6.7,13l6.5-12.1
			c0.6-1,1.4-1.5,2.6-1.5c1.1,0,2,0.5,2.5,1.4l6.6,12.1l6.7-13c0.3-0.6,1.1-1,2.3-1c1.4,0,2,0.5,2,1.4c0,0.3-0.1,0.6-0.3,1
			L120.9,32.5z"/>
		<path class="st0" d="M157.6,34.3c-1,0-1.7,0-1.9-0.1c-0.6-0.2-0.9-0.7-0.9-1.5V20c0-0.9-0.7-1.5-2.3-1.8c-0.5-0.1-1.6-0.1-3.3-0.1
			h-7.1c-1.7,0-2.8,0-3.4,0.1c-1.5,0.3-2.3,0.9-2.3,1.8v12.6c0,1.1-0.6,1.7-1.7,1.7c-1,0-1.6,0-1.9-0.1c-0.6-0.2-0.9-0.7-0.9-1.5
			V20.1c0-3.8,3.4-5.7,10.1-5.7h7.1c6.6,0,10,1.9,10,5.6v12.6C159.2,33.8,158.6,34.3,157.6,34.3z"/>
		<path class="st0" d="M182.1,34.3h-10.7c-2.2,0-4.1-0.4-6-1.3c-2.3-1.1-3.4-2.6-3.4-4.5V26c0-2.1,1.1-3.7,3.2-4.7
			c1.7-0.8,3.7-1.2,6-1.2h15.5c-0.2-1.4-2.2-2.1-5.9-2.1c-0.4,0-0.9,0-1.5,0c-0.6,0-0.9,0-1.1,0c-1.1,0-1.6-0.6-1.6-1.7V16
			c0-1.1,0.6-1.6,1.6-1.6c3.7,0,6.3,0.2,8,0.7c3.2,0.9,4.8,2.7,4.8,5.4v7.8C191,32.3,188,34.3,182.1,34.3z M171.1,23.8
			c-0.9,0-1.8,0.2-2.8,0.5c-1.3,0.4-1.9,1-1.9,1.7v2.5c0,0.7,0.6,1.3,2,1.7c1,0.3,2,0.4,2.9,0.4h10.9c1.9,0,3.2-0.3,3.8-0.8
			c0.5-0.4,0.8-1.3,0.8-2.6c0-0.3,0-0.8,0-1.6c0-0.8,0-1.4,0-1.9H171.1z"/>
		<path class="st0" d="M209.5,33.9c-0.5,0.6-1,0.8-1.7,0.8c-0.6,0-1.2-0.3-1.6-0.8l-14-16.9c-0.4-0.5-0.6-0.9-0.6-1.3
			c0-0.9,0.8-1.4,2.4-1.4c0.9,0,1.6,0.2,2,0.7l11.9,14.5L219.7,15c0.3-0.5,1-0.7,2-0.7c1.6,0,2.3,0.5,2.3,1.4c0,0.4-0.2,0.9-0.6,1.3
			L209.5,33.9z"/>
		<path class="st0" d="M229.9,34.3c-1,0-1.6,0-1.9-0.2c-0.6-0.2-0.9-0.7-0.9-1.5V15.9c0-1.1,0.6-1.6,1.6-1.6c1,0,1.6,0,1.9,0.1
			c0.6,0.2,0.9,0.7,0.9,1.5v16.7C231.5,33.8,231,34.3,229.9,34.3z"/>
		<circle class="st0" cx="229.3" cy="4.8" r="4.8"/>
	</g>
</g>
</svg>
